<?xml version="1.0" standalone="no"?>
<!DOCTYPE svg PUBLIC "-//W3C//DTD SVG 20010904//EN"
 "http://www.w3.org/TR/2001/REC-SVG-20010904/DTD/svg10.dtd">
<svg version="1.0" xmlns="http://www.w3.org/2000/svg"
 width="824.000000pt" height="824.000000pt" viewBox="0 0 824.000000 824.000000"
 preserveAspectRatio="xMidYMid meet">
<metadata>
Created by potrace 1.14, written by Peter Selinger 2001-2017
</metadata>
<g transform="translate(0.000000,824.000000) scale(0.100000,-0.100000)"
fill="#000000" stroke="none">
<path d="M3460 7795 l0 -65 -65 0 -65 0 0 -65 0 -65 -65 0 -65 0 0 -65 0 -65
-65 0 -65 0 0 -65 0 -65 -65 0 -65 0 0 -65 0 -65 -65 0 -65 0 0 -130 0 -130
-65 0 -65 0 0 -125 0 -125 -65 0 -65 0 0 -125 0 -125 -65 0 -65 0 0 -260 0
-260 -260 0 -260 0 0 -65 0 -65 -130 0 -130 0 0 -65 0 -65 -130 0 -130 0 0
-65 0 -65 -60 0 -60 0 0 -65 0 -65 -260 0 -260 0 0 -65 0 -65 -65 0 -66 0 3
-130 3 -129 45 1 c84 2 80 5 80 -67 l0 -65 -130 0 -130 0 0 -130 0 -130 -65 0
-65 0 0 -130 0 -130 -65 0 -65 0 0 -385 0 -385 65 0 65 0 0 -130 0 -130 65 0
65 0 0 -130 0 -130 65 0 65 0 0 -65 0 -65 195 0 195 0 0 -65 0 -65 130 0 130
0 0 -65 0 -65 125 0 125 0 0 -65 0 -65 65 0 65 0 0 -65 0 -65 130 0 130 0 0
-65 0 -65 130 0 130 0 0 -65 0 -65 260 0 260 0 0 -65 0 -65 65 0 65 0 0 -65 0
-65 65 0 65 0 0 -65 0 -65 65 0 65 0 0 -65 0 -65 65 0 65 0 0 -130 0 -130 65
0 65 0 0 -125 0 -125 65 0 65 0 0 -130 0 -130 130 0 130 0 0 -65 0 -65 130 0
130 0 0 65 0 65 60 0 60 0 0 -65 0 -65 65 0 65 0 0 65 0 65 65 0 65 0 0 65 0
65 65 0 65 0 0 -130 0 -130 65 0 65 0 0 -65 0 -65 130 0 130 0 0 -65 0 -65
130 0 130 0 0 65 0 65 -65 0 -65 0 0 65 0 65 65 0 65 0 0 260 0 260 -65 0 -65
0 0 125 0 125 -130 0 -130 0 0 65 0 65 130 0 130 0 0 130 0 130 -195 0 -195 0
0 65 c0 55 3 65 18 66 9 1 68 0 130 0 l112 -2 0 130 0 131 -65 0 -65 0 0 260
0 260 65 0 65 0 0 65 0 65 130 0 130 0 0 -65 0 -65 130 0 130 0 0 -65 0 -65
390 0 390 0 0 -65 0 -65 65 0 65 0 0 -65 0 -65 65 0 65 0 0 -65 0 -65 130 0
130 0 0 -130 0 -130 60 0 60 0 0 -65 0 -65 195 0 195 0 0 -65 0 -65 65 0 65 0
0 -65 0 -65 65 0 65 0 0 65 0 65 65 0 65 0 0 -65 0 -65 130 0 130 0 0 130 0
130 65 0 65 0 0 130 0 130 65 0 65 0 0 65 0 65 -65 0 -65 0 0 65 0 65 65 0 65
0 0 65 0 65 -65 0 -65 0 0 -65 0 -65 -65 0 -65 0 0 130 0 130 -260 0 -260 0 0
65 0 65 -65 0 -65 0 0 65 0 64 -382 1 c-209 0 -384 2 -387 5 -3 3 -6 33 -6 65
l-1 60 258 0 258 0 0 130 0 130 -65 0 -65 0 0 130 0 130 -60 0 -60 0 0 65 0
65 -132 0 -133 0 1 53 c1 28 2 58 3 65 1 8 21 12 66 12 l65 0 0 125 0 125
-130 0 -130 0 0 65 0 65 65 0 65 0 0 65 0 65 -65 0 -65 0 0 65 0 65 65 0 65 0
0 130 0 130 -65 0 -65 0 0 65 0 65 65 0 65 0 0 195 0 195 -65 0 c-71 0 -67 -5
-67 75 0 58 -8 55 132 55 l130 0 0 195 0 195 65 0 65 0 0 130 0 130 60 0 60 0
0 195 0 195 65 0 65 0 0 185 0 185 65 0 65 0 0 65 0 65 -65 0 -65 0 0 65 0 65
68 1 c37 1 94 2 127 2 l60 1 3 -67 3 -67 64 0 65 0 0 65 0 65 130 0 130 0 0
130 0 130 -65 0 -65 0 0 65 0 65 -65 0 -65 0 0 65 0 65 130 0 130 0 0 65 0 65
-195 0 -195 0 0 -65 0 -65 -65 0 -65 0 0 -65 0 -65 -65 0 -65 0 0 -65 0 -65
-65 0 -65 0 0 -65 0 -65 -60 0 -60 0 0 -65 0 -65 -65 0 -65 0 0 -65 0 -65 -65
0 -65 0 0 -65 0 -65 -65 0 -65 0 0 -60 0 -60 -65 0 -65 0 0 -125 0 -125 -65 0
-65 0 0 -65 0 -65 -65 0 -65 0 0 -65 0 -65 -65 0 -65 0 0 -65 0 -65 -130 0
-130 0 0 -65 0 -65 -65 0 -65 0 0 65 0 65 -65 0 -65 0 0 65 0 65 -130 0 -130
0 0 65 0 65 -130 0 -130 0 0 -65 0 -65 -65 0 -65 0 0 65 0 65 -65 0 -65 0 0
-130 0 -130 -65 0 -65 0 0 195 0 195 -65 0 -65 0 0 60 0 60 130 0 130 0 0 125
0 125 -130 0 -130 0 0 130 0 130 -190 0 -190 0 0 65 0 65 -65 0 -65 0 0 130 0
130 65 0 65 0 0 195 0 195 -65 0 -65 0 0 -65 0 -65 -65 0 -65 0 0 65 0 65 -65
0 -65 0 0 -65z"/>
</g>
</svg>
